<svg width="1200" height="630" viewBox="0 0 1200 630" fill="none" xmlns="http://www.w3.org/2000/svg">
  <defs>
    <linearGradient id="bg" x1="0" y1="0" x2="1200" y2="630" gradientUnits="userSpaceOnUse">
      <stop stop-color="#1B3C66"/>
      <stop offset="1" stop-color="#2A74B5"/>
    </linearGradient>
  </defs>
  <rect width="1200" height="630" fill="url(#bg)"/>
  <rect x="110" y="90" width="980" height="450" rx="30" fill="#F9FCFF" fill-opacity="0.95"/>
  <rect x="175" y="150" width="400" height="330" rx="20" fill="#EAF4FF"/>
  <rect x="225" y="205" width="300" height="22" rx="8" fill="#173F68" fill-opacity="0.9"/>
  <rect x="225" y="241" width="240" height="14" rx="7" fill="#355A80" fill-opacity="0.4"/>
  <rect x="225" y="274" width="280" height="30" rx="15" fill="#EC5757" fill-opacity="0.18"/>
  <path d="M250 288l14 14 22-22" stroke="#CC3344" stroke-width="7" stroke-linecap="round" stroke-linejoin="round"/>
  <rect x="225" y="320" width="280" height="30" rx="15" fill="#EC5757" fill-opacity="0.18"/>
  <path d="M250 334l14 14 22-22" stroke="#CC3344" stroke-width="7" stroke-linecap="round" stroke-linejoin="round"/>
  <rect x="225" y="366" width="280" height="30" rx="15" fill="#1F7A61" fill-opacity="0.2"/>
  <path d="M250 380l14 14 22-22" stroke="#1F7A61" stroke-width="7" stroke-linecap="round" stroke-linejoin="round"/>
  <rect x="635" y="150" width="390" height="330" rx="20" fill="#DCEEFF"/>
  <rect x="685" y="206" width="290" height="18" rx="9" fill="#1B3E67" fill-opacity="0.9"/>
  <rect x="685" y="235" width="260" height="14" rx="7" fill="#355A80" fill-opacity="0.36"/>
  <rect x="685" y="282" width="240" height="42" rx="21" fill="#1F7A61"/>
  <rect x="685" y="340" width="210" height="42" rx="21" fill="#2A74B5"/>
  <circle cx="1060" cy="75" r="115" fill="#34D399" fill-opacity="0.2"/>
  <text x="110" y="576" fill="#E9F6FF" font-family="Segoe UI, Arial, sans-serif" font-size="34" font-weight="700">Application Mistakes to Avoid</text>
</svg>
