<svg width="1200" height="630" viewBox="0 0 1200 630" fill="none" xmlns="http://www.w3.org/2000/svg">
  <defs>
    <linearGradient id="bg" x1="0" y1="0" x2="1200" y2="630" gradientUnits="userSpaceOnUse">
      <stop stop-color="#173D66"/>
      <stop offset="1" stop-color="#124D7D"/>
    </linearGradient>
  </defs>
  <rect width="1200" height="630" fill="url(#bg)"/>
  <rect x="100" y="90" width="1000" height="450" rx="30" fill="#F7FBFF" fill-opacity="0.95"/>
  <rect x="160" y="160" width="560" height="320" rx="20" fill="#EAF4FF"/>
  <rect x="205" y="210" width="470" height="44" rx="10" fill="#183F67" fill-opacity="0.9"/>
  <rect x="205" y="274" width="420" height="20" rx="10" fill="#365A80" fill-opacity="0.45"/>
  <rect x="205" y="307" width="390" height="20" rx="10" fill="#365A80" fill-opacity="0.32"/>
  <rect x="205" y="344" width="210" height="38" rx="19" fill="#1F7A61"/>
  <rect x="760" y="160" width="280" height="320" rx="20" fill="#DDECFF"/>
  <rect x="805" y="208" width="190" height="190" rx="95" fill="#1E5C9D" fill-opacity="0.18"/>
  <path d="M900 245c26 0 47 21 47 47s-21 47-47 47-47-21-47-47 21-47 47-47z" fill="#1E5C9D" fill-opacity="0.68"/>
  <rect x="846" y="352" width="108" height="18" rx="9" fill="#1E5C9D" fill-opacity="0.58"/>
  <circle cx="1080" cy="140" r="82" fill="#34D399" fill-opacity="0.24"/>
  <text x="100" y="578" fill="#EAF6FF" font-family="Segoe UI, Arial, sans-serif" font-size="34" font-weight="700">14-Day Interview Plan</text>
</svg>
